# xmcd
#
# Track frame offsets:
#	150
#	25151
#	48507
#	64768
#	84789
#	114409
#	136095
#	157544
#	173413
#	211629
#	240765
#	258428
#
# Disc length: 3709 seconds
#
# Revision: 1
# Processed by: cddbd v1.5.2PL0 Copyright (c) Steve Scherf et al.
# Submitted via: audiograbber 1.83.01
#
DISCID=7c0e7b0c
DTITLE=Various Artist - Songs of Bob Dylan
DYEAR=2008
DGENRE=Blues
TTITLE0=Isaac Hayes - Lay Lady Lay
TTITLE1=The Band - One Too Many Mornings
TTITLE2=Leon Russell - Watching The River Flow
TTITLE3=Taj Mahal - It Takes a Lot to Laugh, It Takes a Train to Cry
TTITLE4=Mavis Staples - Gotta Serve Somebody
TTITLE5=R. L. Burnside - Everything is Broken
TTITLE6=Luther "Guitar Jr." Johnson - Pledging My Time
TTITLE7=John Hammond - I'll Be Your Baby Tonight
TTITLE8=James Solberg - Ballad of a Thin Man
TTITLE9=Alvin Youngblood Hart - Million Miles
TTITLE10=The Holes Brothers - Wallflower
TTITLE11=Larry Mcgray - All Along the Watchtower
EXTD=
EXTT0=
EXTT1=
EXTT2=
EXTT3=
EXTT4=
EXTT5=
EXTT6=
EXTT7=
EXTT8=
EXTT9=
EXTT10=
EXTT11=
PLAYORDER=
